<?xml version="1.0" encoding="utf-8"?>
<!-- Generator: Adobe Illustrator 23.0.1, SVG Export Plug-In . SVG Version: 6.00 Build 0)  -->
<svg version="1.1" id="Layer_1" xmlns="http://www.w3.org/2000/svg" xmlns:xlink="http://www.w3.org/1999/xlink" x="0px" y="0px"
	 viewBox="0 0 675.2 475.6" style="enable-background:new 0 0 675.2 475.6;" xml:space="preserve">
<style type="text/css">
	.st0{fill:url(#Path_464_2_);}
	.st1{fill:url(#SVGID_1_);}
	.st2{fill:#824351;}
	.st3{fill:#FED2B7;}
	.st4{fill:#4D6D7B;}
	.st5{opacity:0.25;fill:#E74F6D;enable-background:new    ;}
	.st6{opacity:0.11;fill:url(#Ellipse_44_2_);enable-background:new    ;}
	.st7{opacity:3.000000e-02;fill:url(#Ellipse_45_2_);enable-background:new    ;}
	.st8{opacity:3.000000e-02;}
	.st9{fill:url(#Path_406_2_);}
	.st10{fill:url(#Path_407_2_);}
	.st11{fill:url(#Path_408_2_);}
	.st12{fill:url(#Path_409_2_);}
	.st13{fill:url(#Path_410_2_);}
	.st14{fill:url(#Path_411_2_);}
	.st15{fill:url(#Path_412_2_);}
	.st16{fill:url(#Path_413_2_);}
	.st17{fill:url(#Path_414_2_);}
	.st18{fill:url(#Path_415_2_);}
	.st19{fill:url(#Path_416_2_);}
	.st20{fill:url(#Path_417_2_);}
	.st21{fill:url(#Path_418_2_);}
	.st22{fill:url(#Path_419_2_);}
	.st23{fill:url(#Path_420_2_);}
	.st24{fill:url(#Path_421_2_);}
	.st25{fill:url(#Path_422_2_);}
	.st26{fill:url(#Path_423_2_);}
	.st27{fill:url(#Path_424_2_);}
	.st28{fill:url(#Path_425_2_);}
	.st29{fill:url(#Path_426_2_);}
	.st30{fill:url(#Path_427_2_);}
	.st31{fill:url(#Path_428_2_);}
	.st32{fill:url(#Path_429_2_);}
	.st33{fill:url(#Path_430_2_);}
	.st34{fill:url(#Path_431_2_);}
	.st35{fill:url(#Path_432_2_);}
	.st36{fill:url(#Path_433_2_);}
	.st37{fill:url(#Path_434_2_);}
	.st38{fill:url(#Path_435_2_);}
	.st39{fill:url(#Path_436_2_);}
	.st40{fill:url(#Path_437_2_);}
	.st41{fill:url(#Path_438_2_);}
	.st42{fill:url(#Path_439_2_);}
	.st43{fill:url(#Path_440_2_);}
	.st44{fill:url(#Path_441_2_);}
	.st45{fill:url(#Path_442_2_);}
	.st46{fill:url(#Path_443_2_);}
	.st47{fill:url(#Path_444_2_);}
	.st48{fill:url(#Path_445_2_);}
	.st49{fill:url(#Path_446_2_);}
	.st50{opacity:0.16;fill:#53537B;enable-background:new    ;}
	.st51{fill:#F2B28F;}
	.st52{fill:url(#Path_457_2_);}
	.st53{fill:url(#Path_458_2_);}
	.st54{fill:#272C3A;}
	.st55{fill:#04060A;}
	.st56{fill:url(#Path_462_2_);}
	.st57{fill:#FFFFFF;}
	.st58{fill:#905660;}
	.st59{fill:#FBCF63;}
	.st60{fill:#F4AA27;}
	.st61{fill:url(#Path_477_2_);}
	.st62{fill:#20404C;}
	.st63{fill:url(#SVGID_2_);}
	.st64{fill:#00ACEF;}
	.st65{fill:url(#SVGID_3_);}
	.st66{fill:url(#SVGID_4_);}
	.st67{fill:url(#Path_497_2_);}
	.st68{fill:url(#Path_498_2_);}
	.st69{fill:none;stroke:#FFC500;stroke-width:3;stroke-linecap:round;stroke-linejoin:round;}
	.st70{fill:#ED532F;}
	.st71{fill:url(#Path_502_2_);}
	.st72{fill:#FCE3CD;}
	.st73{fill:#6556BE;}
	.st74{fill:#D6D6D8;}
	.st75{fill:#CA6461;}
	.st76{fill:#FFCF74;}
	.st77{fill:url(#SVGID_5_);}
	.st78{fill:url(#SVGID_6_);}
	.st79{fill:#0833BD;}
	.st80{fill:#EAE9F5;}
	.st81{opacity:7.000000e-02;enable-background:new    ;}
	.st82{opacity:0.11;}
	.st83{fill:none;stroke:#FFFFFF;stroke-width:1.5;stroke-miterlimit:10;}
	.st84{fill:url(#Path_978_2_);}
	.st85{fill:url(#Ellipse_68_2_);}
	.st86{fill:url(#Path_979_2_);}
	.st87{fill:url(#Ellipse_69_2_);}
	.st88{fill:url(#Path_980_2_);}
	.st89{fill:url(#Path_867_2_);}
	.st90{fill:url(#Path_1316_2_);}
	.st91{fill:url(#Path_1317_2_);}
</style>
<title>Hobe Illustration</title>
<g>
	
		<linearGradient id="Path_464_2_" gradientUnits="userSpaceOnUse" x1="121.8796" y1="633.7798" x2="122.2475" y2="636.5551" gradientTransform="matrix(39.62 0 0 -34.49 -4470.3999 22156.9609)">
		<stop  offset="0.26" style="stop-color:#501699"/>
		<stop  offset="1" style="stop-color:#EB55FF"/>
	</linearGradient>
	<path id="Path_464_1_" class="st0" d="M378.9,196c5.5-3.2,13.5-19.5,17.1-28.6c0.4-3.3,0.7-6.4,0.7-6.4l-13.7-3.7
		c0,0-3.1,8.9-5.8,12.6c-2.1,2.9-14.8,16.1-20.2,21.7C361.8,191.9,378.9,196,378.9,196z"/>
	
		<linearGradient id="SVGID_1_" gradientUnits="userSpaceOnUse" x1="323.4601" y1="132.5773" x2="332.5506" y2="275.4186" gradientTransform="matrix(1 0 0 -1 0 475.89)">
		<stop  offset="0.26" style="stop-color:#501699"/>
		<stop  offset="1" style="stop-color:#EB55FF"/>
	</linearGradient>
	<path class="st1" d="M344.3,293.9c13.2,0.2,26.7,0.1,26.7,0.1s4.7-62,4.7-88.8c0,0,17.9-27.9,18.9-30.5c0.7-2.4,1.1-4.8,1.4-7.3
		c-3.6,9.1-11.6,18.8-17.2,22l0,0c-5,2.9-17.1,2.5-21.8,2.2l-2.4,2.5l-3.2-0.5l-0.1-0.2l-0.3,0.2l0,0l0.3-0.2l-1.6-3.5l-0.4-1
		l-0.7,0.7l-4.2,4.2l-6.1,6.1l-12.8-7.6l-0.4-0.2h-2.6l-1.6,5.3c0,0-19.4,3.2-30.5,20.5c-0.9,1.4-21.5,32.1-21.5,32.1
		s-4.5,4.9,5.2,13.7c10,8.9,34.2,31.5,34.2,31.5c1.3-0.8,2.5-1.8,3.6-2.8c1.9-4.1,0.1-4.3,0.6-5.6c0.1-0.4-0.7-1.7-2.1-3.6
		c1.4,1.9,2.3,3.2,2.1,3.6c-0.4,1.3,1.3,1.5-0.6,5.6c2.4-2.2,4.8-5.2,3.2-7.7c-2.6-4.2-26.8-30-26.8-30l16.8-21
		c0.1,0.4,13.1,31.1,14.2,58.3C319.5,293.1,331.8,293.6,344.3,293.9 M287.7,257.6c-2.8-3.7-0.8-4-0.8-5.2c0-1.6,18.9-20.5,18.9-20.5
		l0,0c-0.9,0.9-18.9,18.9-18.9,20.4l0,0C286.9,253.7,285,253.9,287.7,257.6z"/>
	<path class="st2" d="M200.8,157.3c0,0-3.2,2.7-4.7,2.7h-8.4c0,0,0.1,8.9-4,17.2c-5.1,0.9-9.4,1.9-9.4,1.9L160,191.2
		c0,0,26.6-0.5,36.8-7.7c3.1-1.9,5.1-5.2,5.5-8.8l0,0C203.4,169.4,200.8,157.3,200.8,157.3z"/>
	<path id="Path_448_1_" class="st3" d="M198.7,364.9l-13.1,10.5c0,0-3.1,3.7-0.5,6.3s21.5-13.7,21.5-13.7L198.7,364.9z"/>
	<path id="Path_449_1_" class="st4" d="M186,375.4l-9.5-1L176,398c0,0,2.6,3.2,4.2-2.6s8.7-14.5,8.7-14.5L186,375.4z"/>
	<path id="Path_480_1_" class="st3" d="M148.3,379.1l-14.3,9.5c-1.2,0.9-2,2.2-2.1,3.7c0,2.1-0.5,3.1,2.6,2.6s21-10,21-10
		L148.3,379.1z"/>
	<circle id="Ellipse_43_1_" class="st5" cx="380.1" cy="70.9" r="70.8"/>
	
		<linearGradient id="Ellipse_44_2_" gradientUnits="userSpaceOnUse" x1="106.5466" y1="647.4358" x2="112.5866" y2="642.8358" gradientTransform="matrix(20.3 -24.18 -24.18 -20.3 13798.8799 16181.5605)">
		<stop  offset="0" style="stop-color:#A490DD"/>
		<stop  offset="1" style="stop-color:#6772D4"/>
	</linearGradient>
	<circle id="Ellipse_44_1_" class="st6" cx="429.4" cy="434.7" r="15.8"/>
	
		<linearGradient id="Ellipse_45_2_" gradientUnits="userSpaceOnUse" x1="119.2348" y1="637.7111" x2="122.2948" y2="635.171" gradientTransform="matrix(31.57 0 0 -31.57 -3294.9299 20213.8008)">
		<stop  offset="0" style="stop-color:#A490DD"/>
		<stop  offset="1" style="stop-color:#6772D4"/>
	</linearGradient>
	<circle id="Ellipse_45_1_" class="st7" cx="542" cy="141.6" r="15.8"/>
	<g id="Group_165_1_" class="st8">
		<g id="Group_162_1_">
			
				<linearGradient id="Path_406_2_" gradientUnits="userSpaceOnUse" x1="100.8347" y1="591.5089" x2="111.4247" y2="580.3889" gradientTransform="matrix(7.51 0 0 -7.76 -502.91 4726.8301)">
				<stop  offset="0" style="stop-color:#6772D4;stop-opacity:0"/>
				<stop  offset="1" style="stop-color:#FFFFFF"/>
			</linearGradient>
			<path id="Path_406_1_" class="st9" d="M318.5,202.3c-0.3-0.1-2.2-0.5-2.7-1.4c-0.4-0.8-0.7-1.6-1-2.4l0,0l0,0
				c-0.3,0.8-0.6,1.7-1,2.4c-0.6,0.9-2.4,1.3-2.7,1.4l0,0c0.3,0.1,2.2,0.5,2.7,1.4c0.4,0.8,0.7,1.6,1,2.4l0,0l0,0l0,0
				c0.3-0.8,0.6-1.7,1-2.4C316.4,202.8,318.3,202.4,318.5,202.3L318.5,202.3z"/>
			
				<linearGradient id="Path_407_2_" gradientUnits="userSpaceOnUse" x1="108.3207" y1="610.2679" x2="115.6707" y2="602.548" gradientTransform="matrix(10.82 0 0 -11.17 -860.51 6900.0801)">
				<stop  offset="0" style="stop-color:#6772D4;stop-opacity:0"/>
				<stop  offset="1" style="stop-color:#FFFFFF"/>
			</linearGradient>
			<path id="Path_407_1_" class="st10" d="M377.8,149.4c-0.4-0.1-3.1-0.7-3.9-2c-0.6-1.1-1.1-2.3-1.5-3.5l0,0
				c-0.4,1.2-0.9,2.4-1.5,3.5c-0.8,1.3-3.5,1.9-3.9,2l0,0c0.4,0.1,3.1,0.7,3.9,2c0.6,1.1,1.1,2.3,1.5,3.5l0,0l0,0l0,0
				c0.4-1.2,0.9-2.4,1.5-3.5C374.7,150.1,377.4,149.5,377.8,149.4L377.8,149.4z"/>
			
				<linearGradient id="Path_408_2_" gradientUnits="userSpaceOnUse" x1="90.1354" y1="564.4479" x2="105.3654" y2="548.4479" gradientTransform="matrix(5.21 0 0 -5.39 -177.29 3145.54)">
				<stop  offset="0" style="stop-color:#6772D4;stop-opacity:0"/>
				<stop  offset="1" style="stop-color:#FFFFFF"/>
			</linearGradient>
			<path id="Path_408_1_" class="st11" d="M354.2,167.6c-0.2-0.1-1.5-0.4-1.9-1c-0.3-0.5-0.5-1.1-0.7-1.7l0,0l0,0
				c-0.2,0.6-0.4,1.2-0.7,1.7c-0.4,0.6-1.7,0.9-1.9,1l0,0c0.2,0,1.5,0.4,1.9,1c0.3,0.5,0.5,1.1,0.7,1.7l0,0l0,0
				c0.2-0.6,0.4-1.2,0.7-1.7C352.7,167.9,354,167.6,354.2,167.6z"/>
			
				<linearGradient id="Path_409_2_" gradientUnits="userSpaceOnUse" x1="79.3526" y1="517.7363" x2="101.4926" y2="494.4863" gradientTransform="matrix(3.59 0 0 -3.71 1.68 2025.76)">
				<stop  offset="0" style="stop-color:#6772D4;stop-opacity:0"/>
				<stop  offset="1" style="stop-color:#FFFFFF"/>
			</linearGradient>
			<path id="Path_409_1_" class="st12" d="M328.8,148.8c-0.1,0-1-0.2-1.3-0.7c-0.2-0.4-0.4-0.7-0.5-1.1l0,0
				c-0.1,0.4-0.3,0.8-0.5,1.2c-0.3,0.4-1.2,0.6-1.3,0.7l0,0c0.1,0,1,0.2,1.3,0.7c0.2,0.4,0.4,0.8,0.5,1.2l0,0
				c0.1-0.4,0.3-0.8,0.5-1.2C327.8,149.1,328.7,148.9,328.8,148.8L328.8,148.8z"/>
			
				<linearGradient id="Path_410_2_" gradientUnits="userSpaceOnUse" x1="70.1105" y1="527.5028" x2="92.2605" y2="504.2428" gradientTransform="matrix(3.59 0 0 -3.71 23.28 2072.73)">
				<stop  offset="0" style="stop-color:#6772D4;stop-opacity:0"/>
				<stop  offset="1" style="stop-color:#FFFFFF"/>
			</linearGradient>
			<path id="Path_410_1_" class="st13" d="M350.5,195.7c-0.1,0-1-0.2-1.3-0.7c-0.2-0.4-0.4-0.8-0.5-1.2l0,0
				c-0.1,0.4-0.3,0.8-0.5,1.2c-0.3,0.4-1.2,0.6-1.3,0.7l0,0c0.1,0,1,0.2,1.3,0.7c0.2,0.4,0.4,0.8,0.5,1.2l0,0
				c0.1-0.4,0.3-0.8,0.5-1.2C349.4,195.9,350.3,195.7,350.5,195.7z"/>
			
				<linearGradient id="Path_411_2_" gradientUnits="userSpaceOnUse" x1="83.6792" y1="513.2516" x2="105.8192" y2="489.9916" gradientTransform="matrix(3.59 0 0 -3.71 -18.8 2026.4299)">
				<stop  offset="0" style="stop-color:#6772D4;stop-opacity:0"/>
				<stop  offset="1" style="stop-color:#FFFFFF"/>
			</linearGradient>
			<path id="Path_411_1_" class="st14" d="M308.4,149.4c-0.1,0-1-0.2-1.3-0.7c-0.2-0.4-0.4-0.8-0.5-1.2l0,0l0,0
				c-0.1,0.4-0.3,0.8-0.5,1.2c-0.3,0.4-1.2,0.6-1.3,0.7l0,0c0.1,0,1,0.2,1.3,0.7c0.2,0.4,0.4,0.8,0.5,1.2l0,0l0,0
				c0.1-0.4,0.3-0.8,0.5-1.2C307.3,149.6,308.2,149.4,308.4,149.4z"/>
			
				<linearGradient id="Path_412_2_" gradientUnits="userSpaceOnUse" x1="79.7244" y1="517.5732" x2="101.8644" y2="494.3132" gradientTransform="matrix(3.59 0 0 -3.71 -24.58 2048.77)">
				<stop  offset="0" style="stop-color:#6772D4;stop-opacity:0"/>
				<stop  offset="1" style="stop-color:#FFFFFF"/>
			</linearGradient>
			<path id="Path_412_1_" class="st15" d="M302.6,171.1c-0.1,0-1-0.2-1.3-0.7c-0.2-0.4-0.4-0.8-0.5-1.2l0,0
				c-0.1,0.4-0.3,0.8-0.5,1.2c-0.3,0.4-1.2,0.6-1.3,0.7l0,0c0.1,0,1,0.2,1.3,0.7c0.2,0.4,0.4,0.8,0.5,1.2l0,0
				c0.1-0.4,0.3-0.8,0.5-1.2C301.5,171.3,302.4,171.1,302.6,171.1L302.6,171.1z"/>
			
				<linearGradient id="Path_413_2_" gradientUnits="userSpaceOnUse" x1="80.0112" y1="517.084" x2="102.1512" y2="493.8241" gradientTransform="matrix(3.59 0 0 -3.71 23.28 2001.2299)">
				<stop  offset="0" style="stop-color:#6772D4;stop-opacity:0"/>
				<stop  offset="1" style="stop-color:#FFFFFF"/>
			</linearGradient>
			<path id="Path_413_1_" class="st16" d="M350.5,124.3c-0.1,0-1-0.2-1.3-0.7c-0.2-0.4-0.4-0.8-0.5-1.2l0,0l0,0
				c-0.1,0.4-0.3,0.8-0.5,1.2c-0.3,0.4-1.2,0.6-1.3,0.7l0,0c0.1,0,1,0.2,1.3,0.7c0.2,0.4,0.4,0.8,0.5,1.2l0,0
				c0.1-0.4,0.3-0.8,0.5-1.2C349.4,124.5,350.3,124.3,350.5,124.3z"/>
			
				<linearGradient id="Path_414_2_" gradientUnits="userSpaceOnUse" x1="68.2698" y1="529.4127" x2="90.4098" y2="506.1627" gradientTransform="matrix(3.59 0 0 -3.71 52.17 2059.3401)">
				<stop  offset="0" style="stop-color:#6772D4;stop-opacity:0"/>
				<stop  offset="1" style="stop-color:#FFFFFF"/>
			</linearGradient>
			<path id="Path_414_1_" class="st17" d="M379.3,182.3c-0.1,0-1-0.2-1.3-0.7c-0.2-0.4-0.4-0.8-0.5-1.2l0,0l0,0
				c-0.1,0.4-0.3,0.8-0.5,1.2c-0.3,0.4-1.2,0.6-1.3,0.7l0,0c0.1,0,1,0.2,1.3,0.7c0.2,0.4,0.4,0.8,0.5,1.2l0,0l0,0
				c0.1-0.4,0.3-0.8,0.5-1.1C378.3,182.6,379.2,182.4,379.3,182.3L379.3,182.3z"/>
			
				<linearGradient id="Path_415_2_" gradientUnits="userSpaceOnUse" x1="68.2687" y1="529.4116" x2="90.4087" y2="506.1616" gradientTransform="matrix(3.59 0 0 -3.71 88.75 2085.1101)">
				<stop  offset="0" style="stop-color:#6772D4;stop-opacity:0"/>
				<stop  offset="1" style="stop-color:#FFFFFF"/>
			</linearGradient>
			<path id="Path_415_1_" class="st18" d="M415.9,208.1c-0.1,0-1-0.2-1.3-0.7c-0.2-0.4-0.4-0.8-0.5-1.2l0,0
				c-0.1,0.4-0.3,0.8-0.5,1.2c-0.3,0.4-1.2,0.6-1.3,0.7l0,0c0.1,0,1,0.2,1.3,0.7c0.2,0.4,0.4,0.8,0.5,1.2l0,0
				c0.1-0.4,0.3-0.8,0.5-1.2C414.9,208.3,415.8,208.1,415.9,208.1z"/>
			
				<linearGradient id="Path_416_2_" gradientUnits="userSpaceOnUse" x1="77.4227" y1="566.6487" x2="99.5627" y2="543.3887" gradientTransform="matrix(4.78 0 0 -4.95 -5.39 2901.22)">
				<stop  offset="0" style="stop-color:#6772D4;stop-opacity:0"/>
				<stop  offset="1" style="stop-color:#FFFFFF"/>
			</linearGradient>
			<path id="Path_416_1_" class="st19" d="M472,210.5c-0.2,0-1.4-0.3-1.8-0.9c-0.3-0.5-0.5-1-0.6-1.6l0,0l0,0
				c-0.2,0.5-0.4,1.1-0.6,1.6c-0.4,0.6-1.5,0.9-1.7,0.9l0,0c0.2,0,1.4,0.3,1.8,0.9c0.3,0.5,0.5,1,0.6,1.6l0,0l0,0
				c0.2-0.5,0.4-1.1,0.6-1.6C470.6,210.9,471.8,210.6,472,210.5z"/>
			
				<linearGradient id="Path_417_2_" gradientUnits="userSpaceOnUse" x1="68.278" y1="529.4205" x2="90.418" y2="506.1704" gradientTransform="matrix(3.59 0 0 -3.71 152.96 2121.5901)">
				<stop  offset="0" style="stop-color:#6772D4;stop-opacity:0"/>
				<stop  offset="1" style="stop-color:#FFFFFF"/>
			</linearGradient>
			<path id="Path_417_1_" class="st20" d="M480.1,244.5c-0.1,0-1-0.2-1.3-0.7c-0.2-0.4-0.4-0.8-0.5-1.2l0,0
				c-0.1,0.4-0.3,0.8-0.5,1.2c-0.3,0.4-1.2,0.6-1.3,0.7l0,0c0.1,0,1,0.2,1.3,0.7c0.2,0.4,0.4,0.8,0.5,1.2l0,0
				c0.1-0.4,0.3-0.8,0.5-1.2C479.1,244.8,480,244.6,480.1,244.5z"/>
		</g>
		<g id="Group_163_1_">
			
				<linearGradient id="Path_418_2_" gradientUnits="userSpaceOnUse" x1="109.7247" y1="609.9801" x2="114.5147" y2="602.1501" gradientTransform="matrix(10.64 0 0 -10.99 -1054.04 6890.2002)">
				<stop  offset="0" style="stop-color:#6772D4;stop-opacity:0"/>
				<stop  offset="1" style="stop-color:#FFFFFF"/>
			</linearGradient>
			<path id="Path_418_1_" class="st21" d="M161.6,258.9c-0.4-0.1-3.1-0.7-3.9-2c-0.6-1.1-1.1-2.3-1.4-3.5l0,0
				c-0.4,1.2-0.9,2.4-1.4,3.5c-0.8,1.3-3.5,1.9-3.9,2l0,0c0.4,0.1,3.1,0.7,3.9,2c0.6,1.1,1.1,2.3,1.4,3.5l0,0l0,0l0,0
				c0.4-1.2,0.8-2.4,1.4-3.5C158.5,259.6,161.2,259,161.6,258.9L161.6,258.9z"/>
			
				<linearGradient id="Path_419_2_" gradientUnits="userSpaceOnUse" x1="109.7232" y1="609.9792" x2="114.5132" y2="602.1492" gradientTransform="matrix(10.64 0 0 -10.99 -1006.33 6767.3799)">
				<stop  offset="0" style="stop-color:#6772D4;stop-opacity:0"/>
				<stop  offset="1" style="stop-color:#FFFFFF"/>
			</linearGradient>
			<path id="Path_419_1_" class="st22" d="M209.3,136.1c-0.4-0.1-3.1-0.7-3.9-2c-0.6-1.1-1.1-2.3-1.4-3.5l0,0
				c-0.4,1.2-0.9,2.4-1.4,3.5c-0.8,1.3-3.5,1.9-3.9,2l0,0c0.4,0.1,3.1,0.7,3.9,2c0.6,1.1,1.1,2.3,1.4,3.5l0,0l0,0l0,0
				c0.4-1.2,0.9-2.4,1.4-3.5C206.2,136.8,208.8,136.2,209.3,136.1L209.3,136.1z"/>
			
				<linearGradient id="Path_420_2_" gradientUnits="userSpaceOnUse" x1="104.8915" y1="589.7897" x2="109.6715" y2="581.9597" gradientTransform="matrix(7.56 0 0 -7.81 -591.2 4717.7402)">
				<stop  offset="0" style="stop-color:#6772D4;stop-opacity:0"/>
				<stop  offset="1" style="stop-color:#FFFFFF"/>
			</linearGradient>
			<path id="Path_420_1_" class="st23" d="M236.2,163.3c-0.3-0.1-2.2-0.5-2.8-1.4c-0.4-0.8-0.7-1.6-1-2.5l0,0l0,0l0,0
				c-0.3,0.9-0.6,1.7-1,2.5c-0.6,0.9-2.4,1.4-2.8,1.4l0,0c0.3,0.1,2.2,0.5,2.8,1.4c0.4,0.8,0.7,1.6,1,2.5l0,0l0,0l0,0
				c0.3-0.8,0.6-1.7,1-2.5C234,163.8,235.9,163.3,236.2,163.3z"/>
			
				<linearGradient id="Path_421_2_" gradientUnits="userSpaceOnUse" x1="104.9411" y1="589.8199" x2="109.7211" y2="581.9999" gradientTransform="matrix(7.56 0 0 -7.81 -554.91 4673.6899)">
				<stop  offset="0" style="stop-color:#6772D4;stop-opacity:0"/>
				<stop  offset="1" style="stop-color:#FFFFFF"/>
			</linearGradient>
			<path id="Path_421_1_" class="st24" d="M272.6,118.5c-0.3-0.1-2.2-0.5-2.8-1.4c-0.4-0.8-0.7-1.6-1-2.5l0,0l0,0
				c-0.3,0.9-0.6,1.7-1,2.5c-0.6,0.9-2.5,1.3-2.8,1.4l0,0c0.3,0.1,2.2,0.5,2.8,1.4c0.4,0.8,0.7,1.6,1,2.5l0,0l0,0l0,0
				c0.3-0.8,0.6-1.7,1-2.5C270.4,119,272.3,118.6,272.6,118.5z"/>
			
				<linearGradient id="Path_422_2_" gradientUnits="userSpaceOnUse" x1="103.2271" y1="590.4479" x2="110.1071" y2="579.1979" gradientTransform="matrix(7.4 0 0 -7.64 -616.25 4678.2202)">
				<stop  offset="0" style="stop-color:#6772D4;stop-opacity:0"/>
				<stop  offset="1" style="stop-color:#FFFFFF"/>
			</linearGradient>
			<path id="Path_422_1_" class="st25" d="M190.9,234c-0.3-0.1-2.1-0.5-2.7-1.4c-0.4-0.8-0.7-1.6-1-2.4l0,0l0,0
				c-0.3,0.8-0.6,1.6-1,2.4c-0.6,0.9-2.4,1.3-2.7,1.4l0,0c0.3,0.1,2.1,0.5,2.7,1.4c0.4,0.8,0.7,1.6,1,2.4l0,0l0,0l0,0
				c0.3-0.8,0.6-1.6,1-2.4C188.8,234.5,190.6,234.1,190.9,234L190.9,234z"/>
			
				<linearGradient id="Path_423_2_" gradientUnits="userSpaceOnUse" x1="112.6981" y1="605.5443" x2="117.4781" y2="597.7242" gradientTransform="matrix(10.64 0 0 -10.98 -1064.6 6828.1802)">
				<stop  offset="0" style="stop-color:#6772D4;stop-opacity:0"/>
				<stop  offset="1" style="stop-color:#FFFFFF"/>
			</linearGradient>
			<path id="Path_423_1_" class="st26" d="M151,198.2c-0.4-0.1-3.1-0.7-3.9-2c-0.6-1.1-1.1-2.3-1.4-3.5l0,0l0,0l0,0
				c-0.4,1.2-0.9,2.4-1.4,3.5c-0.8,1.3-3.4,1.9-3.9,2l0,0c0.4,0.1,3.1,0.7,3.9,2c0.6,1.1,1.1,2.3,1.4,3.5v0.1l0,0l0,0
				c0.4-1.2,0.9-2.4,1.4-3.5C147.8,198.9,150.5,198.3,151,198.2L151,198.2z"/>
			
				<linearGradient id="Path_424_2_" gradientUnits="userSpaceOnUse" x1="95.9284" y1="557.8145" x2="105.9284" y2="541.4445" gradientTransform="matrix(5.08 0 0 -5.25 -354.63 3106.8701)">
				<stop  offset="0" style="stop-color:#6772D4;stop-opacity:0"/>
				<stop  offset="1" style="stop-color:#FFFFFF"/>
			</linearGradient>
			<path id="Path_424_1_" class="st27" d="M160.5,221c-0.2,0-1.5-0.3-1.9-0.9c-0.3-0.5-0.5-1.1-0.7-1.7l0,0l0,0
				c-0.2,0.6-0.4,1.1-0.7,1.6c-0.4,0.6-1.6,0.9-1.9,1l0,0c0.2,0,1.5,0.3,1.9,0.9c0.3,0.5,0.5,1.1,0.7,1.6l0,0l0,0
				c0.2-0.6,0.4-1.1,0.7-1.7C159,221.4,160.2,221.1,160.5,221L160.5,221z"/>
			
				<linearGradient id="Path_425_2_" gradientUnits="userSpaceOnUse" x1="94.7035" y1="559.9643" x2="104.7035" y2="543.5943" gradientTransform="matrix(5.08 0 0 -5.25 -370.8 3132.0801)">
				<stop  offset="0" style="stop-color:#6772D4;stop-opacity:0"/>
				<stop  offset="1" style="stop-color:#FFFFFF"/>
			</linearGradient>
			<path id="Path_425_1_" class="st28" d="M144.3,245.5c-0.2-0.1-1.5-0.4-1.9-1c-0.3-0.5-0.5-1.1-0.7-1.7l0,0l0,0
				c-0.2,0.6-0.4,1.1-0.7,1.6c-0.4,0.6-1.7,0.9-1.9,0.9l0,0c0.2,0.1,1.5,0.4,1.9,1c0.3,0.5,0.5,1.1,0.7,1.7l0,0l0,0
				c0.2-0.6,0.4-1.1,0.7-1.7C142.8,245.8,144.1,245.5,144.3,245.5L144.3,245.5z"/>
			
				<linearGradient id="Path_426_2_" gradientUnits="userSpaceOnUse" x1="96.1047" y1="557.6751" x2="106.1147" y2="541.3051" gradientTransform="matrix(5.08 0 0 -5.25 -326.28 3089.46)">
				<stop  offset="0" style="stop-color:#6772D4;stop-opacity:0"/>
				<stop  offset="1" style="stop-color:#FFFFFF"/>
			</linearGradient>
			<path id="Path_426_1_" class="st29" d="M188.9,202.8c-0.2,0-1.5-0.3-1.9-1c-0.3-0.5-0.5-1.1-0.7-1.6l0,0l0,0
				c-0.2,0.6-0.4,1.1-0.7,1.7c-0.4,0.6-1.7,0.9-1.9,1l0,0c0.2,0,1.5,0.3,1.9,0.9c0.3,0.5,0.5,1.1,0.7,1.7l0,0l0,0
				c0.2-0.6,0.4-1.1,0.7-1.6C187.4,203.2,188.6,202.9,188.9,202.8L188.9,202.8z"/>
			
				<linearGradient id="Path_427_2_" gradientUnits="userSpaceOnUse" x1="89.5879" y1="568.1843" x2="99.5879" y2="551.8243" gradientTransform="matrix(5.08 0 0 -5.25 -331.8 3152.1799)">
				<stop  offset="0" style="stop-color:#6772D4;stop-opacity:0"/>
				<stop  offset="1" style="stop-color:#FFFFFF"/>
			</linearGradient>
			<path id="Path_427_1_" class="st30" d="M183.3,266.2c-0.2,0-1.5-0.3-1.9-1c-0.3-0.5-0.5-1.1-0.7-1.6l0,0l0,0
				c-0.2,0.6-0.4,1.1-0.7,1.7c-0.4,0.6-1.6,0.9-1.9,1l0,0c0.2,0,1.5,0.3,1.9,1c0.3,0.5,0.5,1.1,0.7,1.7l0,0l0,0
				c0.2-0.6,0.4-1.1,0.7-1.7C181.8,266.5,183.1,266.2,183.3,266.2L183.3,266.2z"/>
			
				<linearGradient id="Path_428_2_" gradientUnits="userSpaceOnUse" x1="89.6005" y1="568.1919" x2="99.6005" y2="551.8219" gradientTransform="matrix(5.08 0 0 -5.25 -179.87 3233.7)">
				<stop  offset="0" style="stop-color:#6772D4;stop-opacity:0"/>
				<stop  offset="1" style="stop-color:#FFFFFF"/>
			</linearGradient>
			<path id="Path_428_1_" class="st31" d="M335.3,347.8c-0.2,0-1.5-0.3-1.9-1c-0.3-0.5-0.5-1.1-0.7-1.7l0,0l0,0
				c-0.2,0.6-0.4,1.1-0.7,1.7c-0.4,0.6-1.6,0.9-1.9,1l0,0c0.2,0,1.5,0.3,1.9,1c0.3,0.5,0.5,1.1,0.7,1.6l0,0l0,0
				c0.2-0.6,0.4-1.1,0.7-1.7C333.8,348.1,335.1,347.8,335.3,347.8L335.3,347.8z"/>
			
				<linearGradient id="Path_429_2_" gradientUnits="userSpaceOnUse" x1="92.4351" y1="580.0847" x2="102.4451" y2="563.7147" gradientTransform="matrix(5.74 0 0 -5.93 -352.79 3705.3701)">
				<stop  offset="0" style="stop-color:#6772D4;stop-opacity:0"/>
				<stop  offset="1" style="stop-color:#FFFFFF"/>
			</linearGradient>
			<path id="Path_429_1_" class="st32" d="M245.4,374.8c-0.2,0-1.7-0.4-2.1-1.1c-0.3-0.6-0.6-1.2-0.8-1.9l0,0l0,0
				c-0.2,0.6-0.5,1.3-0.8,1.9c-0.4,0.7-1.9,1-2.1,1.1l0,0c0.2,0,1.7,0.4,2.1,1.1c0.3,0.6,0.6,1.2,0.8,1.9l0,0l0,0
				c0.2-0.6,0.5-1.3,0.8-1.9C243.7,375.2,245.1,374.9,245.4,374.8z"/>
			
				<linearGradient id="Path_430_2_" gradientUnits="userSpaceOnUse" x1="90.6933" y1="572.5901" x2="100.6933" y2="556.2201" gradientTransform="matrix(5.3 0 0 -5.48 -271.76 3422.6699)">
				<stop  offset="0" style="stop-color:#6772D4;stop-opacity:0"/>
				<stop  offset="1" style="stop-color:#FFFFFF"/>
			</linearGradient>
			<path id="Path_430_1_" class="st33" d="M271.2,385.9c-0.2,0-1.5-0.4-1.9-1c-0.3-0.6-0.5-1.1-0.7-1.7l0,0l0,0
				c-0.2,0.6-0.4,1.2-0.7,1.7c-0.4,0.6-1.7,1-1.9,1l0,0c0.2,0,1.5,0.4,1.9,1c0.3,0.6,0.5,1.1,0.7,1.7l0,0l0,0
				c0.2-0.6,0.4-1.2,0.7-1.7C269.7,386.3,271,386,271.2,385.9z"/>
		</g>
		<g id="Group_164_1_">
			
				<linearGradient id="Path_431_2_" gradientUnits="userSpaceOnUse" x1="103.6362" y1="581.7895" x2="111.1462" y2="574.1995" gradientTransform="matrix(6.97 0 0 -7.21 -297.52 4517.3799)">
				<stop  offset="0" style="stop-color:#6772D4;stop-opacity:0"/>
				<stop  offset="1" style="stop-color:#FFFFFF"/>
			</linearGradient>
			<path id="Path_431_1_" class="st34" d="M448.8,351.5c0.3,0,2,0.4,2.6,1.2c0.4,0.7,0.7,1.5,1,2.2l0,0l0,0l0,0
				c0.2-0.8,0.5-1.6,0.8-2.3c0.5-0.9,2.2-1.4,2.5-1.4l0,0c-0.3,0-2-0.4-2.6-1.2c-0.4-0.7-0.8-1.5-1-2.2l0,0l0,0l0,0
				c-0.2,0.8-0.5,1.6-0.8,2.3C450.8,351,449.1,351.5,448.8,351.5L448.8,351.5z"/>
			
				<linearGradient id="Path_432_2_" gradientUnits="userSpaceOnUse" x1="94.3269" y1="550.4542" x2="105.1269" y2="539.5341" gradientTransform="matrix(4.85 0 0 -5.01 -50.89 3099.21)">
				<stop  offset="0" style="stop-color:#6772D4;stop-opacity:0"/>
				<stop  offset="1" style="stop-color:#FFFFFF"/>
			</linearGradient>
			<path id="Path_432_1_" class="st35" d="M430.3,368.8c0.2,0,1.4,0.3,1.8,0.8c0.3,0.5,0.5,1,0.7,1.6l0,0l0,0
				c0.1-0.6,0.3-1.1,0.6-1.6c0.3-0.6,1.5-0.9,1.7-1l0,0c-0.7-0.1-1.3-0.4-1.8-0.8c-0.3-0.5-0.5-1-0.7-1.5l0,0l0,0
				c-0.1,0.6-0.3,1.1-0.6,1.6C431.7,368.4,430.5,368.7,430.3,368.8L430.3,368.8z"/>
			
				<linearGradient id="Path_433_2_" gradientUnits="userSpaceOnUse" x1="100.1597" y1="585.2133" x2="107.6697" y2="577.6133" gradientTransform="matrix(6.97 0 0 -7.21 -288.76 4556.2202)">
				<stop  offset="0" style="stop-color:#6772D4;stop-opacity:0"/>
				<stop  offset="1" style="stop-color:#FFFFFF"/>
			</linearGradient>
			<path id="Path_433_1_" class="st36" d="M457.6,391.1c0.3,0,2,0.4,2.6,1.2c0.4,0.7,0.7,1.5,1,2.2l0,0l0,0l0,0
				c0.2-0.8,0.5-1.6,0.8-2.3c0.5-0.9,2.2-1.4,2.5-1.4l0,0c-0.3,0-2-0.4-2.6-1.2c-0.4-0.7-0.7-1.5-1-2.2l0,0l0,0l0,0
				c-0.2,0.8-0.5,1.6-0.8,2.3C459.7,390.5,457.9,391,457.6,391.1L457.6,391.1z"/>
			
				<linearGradient id="Path_434_2_" gradientUnits="userSpaceOnUse" x1="100.1956" y1="585.249" x2="107.7056" y2="577.6591" gradientTransform="matrix(6.97 0 0 -7.21 -195.07 4525.7002)">
				<stop  offset="0" style="stop-color:#6772D4;stop-opacity:0"/>
				<stop  offset="1" style="stop-color:#FFFFFF"/>
			</linearGradient>
			<path id="Path_434_1_" class="st37" d="M551.3,360c0.3,0,2,0.4,2.6,1.2c0.4,0.7,0.7,1.5,1,2.2l0,0l0,0l0,0
				c0.2-0.8,0.5-1.6,0.8-2.3c0.5-0.9,2.2-1.4,2.5-1.4l0,0c-0.3,0-2-0.4-2.6-1.2c-0.4-0.7-0.7-1.5-1-2.2l0,0l0,0l0,0
				c-0.2,0.8-0.5,1.6-0.8,2.3C553.3,359.4,551.6,359.9,551.3,360z"/>
			
				<linearGradient id="Path_435_2_" gradientUnits="userSpaceOnUse" x1="96.5286" y1="570.8585" x2="104.0387" y2="563.2686" gradientTransform="matrix(5.88 0 0 -6.08 -67.91 3813.7598)">
				<stop  offset="0" style="stop-color:#6772D4;stop-opacity:0"/>
				<stop  offset="1" style="stop-color:#FFFFFF"/>
			</linearGradient>
			<path id="Path_435_1_" class="st38" d="M542,390.4c0.2,0,1.7,0.3,2.2,1c0.3,0.6,0.6,1.2,0.9,1.9l0,0l0,0l0,0
				c0.2-0.7,0.4-1.3,0.7-2c0.4-0.7,1.9-1.1,2.1-1.2l0,0c-0.2,0-1.7-0.3-2.2-1c-0.3-0.6-0.6-1.2-0.9-1.9l0,0l0,0
				c-0.2,0.7-0.4,1.4-0.7,2C543.7,390,542.2,390.4,542,390.4L542,390.4z"/>
			
				<linearGradient id="Path_436_2_" gradientUnits="userSpaceOnUse" x1="96.9666" y1="571.2252" x2="104.4766" y2="563.6252" gradientTransform="matrix(5.87 0 0 -6.07 -56.97 3661.8301)">
				<stop  offset="0" style="stop-color:#6772D4;stop-opacity:0"/>
				<stop  offset="1" style="stop-color:#FFFFFF"/>
			</linearGradient>
			<path id="Path_436_1_" class="st39" d="M551.9,239.2c0.2,0,1.7,0.3,2.2,1c0.3,0.6,0.6,1.2,0.9,1.9l0,0l0,0
				c0.2-0.7,0.4-1.3,0.7-1.9c0.4-0.7,1.9-1.1,2.1-1.2l0,0c-0.2,0-1.7-0.3-2.2-1c-0.4-0.6-0.6-1.2-0.9-1.9l0,0l0,0
				c-0.2,0.7-0.4,1.3-0.7,1.9C553.6,238.7,552.1,239.1,551.9,239.2L551.9,239.2z"/>
			
				<linearGradient id="Path_437_2_" gradientUnits="userSpaceOnUse" x1="102.2459" y1="593.7811" x2="109.7559" y2="586.1912" gradientTransform="matrix(7.87 0 0 -8.13 -268.22 5050.9399)">
				<stop  offset="0" style="stop-color:#6772D4;stop-opacity:0"/>
				<stop  offset="1" style="stop-color:#FFFFFF"/>
			</linearGradient>
			<path id="Path_437_1_" class="st40" d="M590.6,284.3c0.3,0,2.3,0.4,2.9,1.3c0.5,0.8,0.9,1.6,1.2,2.5l0,0l0,0l0,0
				c0.2-0.9,0.5-1.8,0.9-2.6c0.5-1,2.5-1.5,2.8-1.6l0,0c-0.3,0-2.3-0.4-2.9-1.3c-0.5-0.8-0.9-1.6-1.2-2.5l0,0l0,0l0,0
				c-0.2,0.9-0.6,1.8-0.9,2.6C592.9,283.7,590.9,284.3,590.6,284.3L590.6,284.3z"/>
			
				<linearGradient id="Path_438_2_" gradientUnits="userSpaceOnUse" x1="76.0911" y1="507.5452" x2="91.7911" y2="491.6652" gradientTransform="matrix(3.33 0 0 -3.44 159.33 2080.8899)">
				<stop  offset="0" style="stop-color:#6772D4;stop-opacity:0"/>
				<stop  offset="1" style="stop-color:#FFFFFF"/>
			</linearGradient>
			<path id="Path_438_1_" class="st41" d="M450.7,376.4c0.1,0,1,0.2,1.2,0.6c0.2,0.3,0.4,0.7,0.5,1.1l0,0c0.1-0.4,0.2-0.8,0.4-1.1
				c0.2-0.4,1.1-0.6,1.2-0.7l0,0c-0.1,0-1-0.2-1.2-0.6c-0.2-0.3-0.4-0.7-0.5-1.1l0,0c-0.1,0.4-0.2,0.7-0.4,1.1
				C451.7,376.2,450.9,376.4,450.7,376.4L450.7,376.4z"/>
			
				<linearGradient id="Path_439_2_" gradientUnits="userSpaceOnUse" x1="77.248" y1="506.5812" x2="92.958" y2="490.7012" gradientTransform="matrix(3.33 0 0 -3.44 169.16 2065.05)">
				<stop  offset="0" style="stop-color:#6772D4;stop-opacity:0"/>
				<stop  offset="1" style="stop-color:#FFFFFF"/>
			</linearGradient>
			<path id="Path_439_1_" class="st42" d="M460.6,359.9c0.1,0,1,0.2,1.2,0.6c0.2,0.3,0.4,0.7,0.5,1.1l0,0c0.1-0.4,0.2-0.8,0.4-1.1
				c0.2-0.4,1.1-0.6,1.2-0.7l0,0c-0.5-0.1-0.9-0.3-1.2-0.6c-0.2-0.3-0.4-0.7-0.5-1.1l0,0c-0.1,0.4-0.2,0.7-0.4,1.1
				C461.6,359.6,460.8,359.8,460.6,359.9L460.6,359.9z"/>
			
				<linearGradient id="Path_440_2_" gradientUnits="userSpaceOnUse" x1="76.8685" y1="506.9617" x2="92.5785" y2="491.0817" gradientTransform="matrix(3.33 0 0 -3.44 141.18 2094.3601)">
				<stop  offset="0" style="stop-color:#6772D4;stop-opacity:0"/>
				<stop  offset="1" style="stop-color:#FFFFFF"/>
			</linearGradient>
			<path id="Path_440_1_" class="st43" d="M432.6,389.2c0.1,0,1,0.2,1.2,0.6c0.2,0.3,0.4,0.7,0.5,1.1l0,0c0.1-0.4,0.2-0.7,0.4-1.1
				c0.2-0.4,1.1-0.6,1.2-0.7l0,0c-0.1,0-1-0.2-1.2-0.6c-0.2-0.3-0.4-0.7-0.5-1.1l0,0c-0.1,0.4-0.2,0.8-0.4,1.1
				C433.6,388.9,432.8,389.2,432.6,389.2L432.6,389.2z"/>
			
				<linearGradient id="Path_441_2_" gradientUnits="userSpaceOnUse" x1="85.621" y1="498.144" x2="101.331" y2="482.2641" gradientTransform="matrix(3.33 0 0 -3.44 115.54 2060.52)">
				<stop  offset="0" style="stop-color:#6772D4;stop-opacity:0"/>
				<stop  offset="1" style="stop-color:#FFFFFF"/>
			</linearGradient>
			<path id="Path_441_1_" class="st44" d="M407,355.3c0.5,0.1,0.9,0.3,1.2,0.6c0.2,0.3,0.4,0.7,0.5,1.1l0,0l0,0
				c0.1-0.4,0.2-0.8,0.4-1.1c0.2-0.4,1-0.6,1.2-0.7l0,0c-0.5-0.1-0.9-0.3-1.2-0.6c-0.2-0.3-0.4-0.7-0.5-1.1l0,0l0,0
				c-0.1,0.4-0.2,0.8-0.4,1.1C408,355.1,407.1,355.3,407,355.3z"/>
		</g>
		
			<linearGradient id="Path_442_2_" gradientUnits="userSpaceOnUse" x1="121.6709" y1="639.5395" x2="122.6718" y2="639.5395" gradientTransform="matrix(37.57 0 0 -40.34 -4343.5498 25947.8203)">
			<stop  offset="0" style="stop-color:#6772D4;stop-opacity:0"/>
			<stop  offset="1" style="stop-color:#FFFFFF"/>
		</linearGradient>
		<path id="Path_442_1_" class="st45" d="M262.4,167l-34.7-38.4l35.9,37.1c0,0,2.4,2.3,1.5,3.2C264.4,169.5,262.4,167,262.4,167z"/>
		
			<linearGradient id="Path_443_2_" gradientUnits="userSpaceOnUse" x1="119.8946" y1="632.4416" x2="120.8951" y2="632.4416" gradientTransform="matrix(24.49 0 0 -26.29 -2667.4199 16987.5508)">
			<stop  offset="0" style="stop-color:#6772D4;stop-opacity:0"/>
			<stop  offset="1" style="stop-color:#FFFFFF"/>
		</linearGradient>
		<path id="Path_443_1_" class="st46" d="M291.4,372.5l-22.6-25l23.4,24.1c0,0,1.6,1.5,1,2.1S291.4,372.5,291.4,372.5z"/>
		
			<linearGradient id="Path_444_2_" gradientUnits="userSpaceOnUse" x1="121.3329" y1="638.2615" x2="122.3327" y2="638.2615" gradientTransform="matrix(34.08 0 0 -36.59 -3649.29 23710.1895)">
			<stop  offset="0" style="stop-color:#6772D4;stop-opacity:0"/>
			<stop  offset="1" style="stop-color:#FFFFFF"/>
		</linearGradient>
		<path id="Path_444_1_" class="st47" d="M517.3,372.7l-31.4-34.8l32.5,33.6c0,0,2.2,2.1,1.4,2.9C519.1,375,517.3,372.7,517.3,372.7
			z"/>
		
			<linearGradient id="Path_445_2_" gradientUnits="userSpaceOnUse" x1="118.6434" y1="627.3893" x2="119.644" y2="627.3893" gradientTransform="matrix(19.67 0 0 -21.12 -1766.8201 13605)">
			<stop  offset="0" style="stop-color:#6772D4;stop-opacity:0"/>
			<stop  offset="1" style="stop-color:#FFFFFF"/>
		</linearGradient>
		<path id="Path_445_1_" class="st48" d="M585.3,364.1L567.1,344l18.8,19.4c0,0,1.2,1.2,0.8,1.6S585.3,364.1,585.3,364.1z"/>
		
			<linearGradient id="Path_446_2_" gradientUnits="userSpaceOnUse" x1="118.6456" y1="627.3759" x2="119.6453" y2="627.3759" gradientTransform="matrix(19.68 0 0 -21.12 -2075.8301 13481.8799)">
			<stop  offset="0" style="stop-color:#6772D4;stop-opacity:0"/>
			<stop  offset="1" style="stop-color:#FFFFFF"/>
		</linearGradient>
		<path id="Path_446_1_" class="st49" d="M277.1,241.2L259,221.1l18.8,19.4c0,0,1.3,1.2,0.8,1.7S277.1,241.2,277.1,241.2z"/>
	</g>
	<path id="Path_447_1_" class="st3" d="M389.6,143.1c0,0,1-16.8,6.3-18.4s13.7-12.6,13.7-4.2S389.6,143.1,389.6,143.1z"/>
	<path id="Path_450_1_" class="st50" d="M89.1,468.7c0,0,116.7,0,125.6-3.1c0,0-10,10-64.6,10C143.7,475.5,78,474.5,89.1,468.7"/>
	<path id="Path_451_1_" class="st50" d="M446.4,470.8c0,2.6-46.3,4.7-103.5,4.7s-103.5-2.1-103.5-4.7s46.4-6.8,103.5-4.8
		C400.7,468.1,446.4,468.1,446.4,470.8"/>
	<path id="Path_452_1_" class="st50" d="M458,472.1c0-1.8,31.5-3.2,70.4-3.2s70.4,1.4,70.4,3.2s-31.5,4.6-70.4,3.2
		C489.1,473.8,458,473.8,458,472.1"/>
	<path class="st3" d="M348.7,189.6c-1.3-2.4-2.5-5-3.5-7.6c-0.5-2.1-18.4-0.5-18.4-0.5s0.8,0.8,0.1,5.2l0,0
		c-0.3,1.9-0.7,3.7-1.3,5.5l12.8,7.7l6-6.1l0,0L348.7,189.6z"/>
	<path id="Path_454_1_" class="st51" d="M348.7,189.6c-1.3-2.4-2.5-5-3.5-7.6c-0.5-2.1-18.4-0.5-18.4-0.5s0.8,0.8,0.1,5.2l17.5,7.1
		L348.7,189.6z"/>
	<path id="Path_455_1_" class="st3" d="M305.3,456.3v5.2c0,0,1.6,2.6,4.2,2.1s4.2-1.6,4.2-2.6s-1-8.4-1-8.4L305.3,456.3z"/>
	<path id="Path_456_1_" class="st3" d="M366.3,454.2c0,0-0.8,7.6,1.3,8.1s8.7-1.8,8.7-1.8l-2.1-12.6L366.3,454.2z"/>
	
		<linearGradient id="Path_457_2_" gradientUnits="userSpaceOnUse" x1="121.8683" y1="607.2149" x2="122.8685" y2="607.2149" gradientTransform="matrix(39.96 0 0 -11.82 -4506.6099 7641.8799)">
		<stop  offset="0" style="stop-color:#00C6FB"/>
		<stop  offset="1" style="stop-color:#005BEA"/>
	</linearGradient>
	<path id="Path_457_1_" class="st52" d="M367.9,459.5c0,0-4.2-1-4.2,1s-0.5,10,1,10h38.4c0,0,1.6-2.6-1-3.7s-25-8.1-25-8.1l-3.9,1.7
		c-0.9,0.3-1.8,0.3-2.6,0L367.9,459.5z"/>
	
		<linearGradient id="Path_458_2_" gradientUnits="userSpaceOnUse" x1="121.1043" y1="608.1837" x2="122.1043" y2="608.1837" gradientTransform="matrix(32.05 0 0 -12.15 -3597.3799 7855.3398)">
		<stop  offset="0" style="stop-color:#00C6FB"/>
		<stop  offset="1" style="stop-color:#005BEA"/>
	</linearGradient>
	<path id="Path_458_1_" class="st53" d="M306.9,461c0,0-19.4,5.2-22.1,6.8s0.5,4.2,0.5,4.2h29.9c0,0,2.1-10-2.1-11.6
		S306.9,461,306.9,461"/>
	<polygon class="st54" points="371.5,296 318.5,298.1 304.8,457.4 312.9,457.4 312.9,457.3 316.9,457.3 332.6,384.8 345.8,337 
		352.5,309.6 352.6,309.2 345.8,337.1 355.3,379.1 364.7,455.8 376.3,454.8 376.3,374.9 	"/>
	<path id="Path_459_1_" class="st55" d="M326.9,384.3l-14,73h4l15.8-72.5l13.1-47.8l0,0l6.8-27.9L326.9,384.3z"/>
	<path id="Path_461_1_" class="st3" d="M321.6,174.7c0,0,2.1,11.6,17.9,12.1c2.6,0.1,14.2-3.7,13.1-12.6c-0.3-2.1-7.4-15.2-7.9-19.4
		s-18.9-1.6-18.9-1.6L321.6,174.7z"/>
	
		<linearGradient id="Path_462_2_" gradientUnits="userSpaceOnUse" x1="122.8269" y1="648.3188" x2="123.0968" y2="649.0388" gradientTransform="matrix(51.73 0 0 -126.64 -5996.71 82390.6328)">
		<stop  offset="0.26" style="stop-color:#501699"/>
		<stop  offset="1" style="stop-color:#EB55FF"/>
	</linearGradient>
	<path id="Path_462_1_" class="st56" d="M378.9,189.4c-5,2.9-17.1,2.5-21.8,2.2l-2.4,2.5l-3.2-0.5l-0.1-0.2l-0.4,0.2
		c0,0,19.5,5.8,19.5,20s-0.5,62.5-1.6,65.7s-1,11.6-24.6,14.6l0,0c13.2,0.2,26.7,0.1,26.7,0.1s4.7-62,4.7-88.8
		c0,0,17.9-27.9,18.9-30.5c0.7-2.4,1.1-4.8,1.4-7.3C392.4,176.5,384.4,186.2,378.9,189.4"/>
	<path id="Path_463_1_" class="st57" d="M339.5,173.1c0,0,8.4-1.6,8.9-2.6s2.1,5.2-2.1,6.3C343.5,177,340.8,175.6,339.5,173.1"/>
	<rect id="Rectangle_88_1_" x="318.5" y="292.4" class="st57" width="53.3" height="7.4"/>
	<path id="Path_466_1_" class="st57" d="M323.2,198.3l14.2,10.5l0.5-5.8l-1.6,3.1L323.2,198.3z"/>
	<path id="Path_467_1_" class="st3" d="M308.7,294.7c0,0,8.7,7.6,9.7,7.6c1.5-0.2,2.9-0.7,4.2-1.6c0.5-0.5,1.6-0.5,2.6-0.5
		s3.1,2.1,3.7,0s-2.1-8.9-3.2-10s-11.2-6.4-11-3.7C315.1,291,308.8,294.7,308.7,294.7"/>
	<path id="Path_468_1_" class="st57" d="M339,201.5l2.1,6.3l4.7-5.8l-4.2,3.1L339,201.5z"/>
	<path id="Path_469_1_" class="st57" d="M343.2,216.2c0,0.6-0.7,1-1.6,1s-1.6-0.5-1.6-1s0.7-1.1,1.6-1.1S343.2,215.6,343.2,216.2"/>
	<path id="Path_470_1_" class="st57" d="M346.8,234c0.2,0.7-0.2,1.5-1,1.7c-0.7,0.2-1.5-0.2-1.7-1c-0.2-0.7,0.2-1.5,1-1.7
		c0.1,0,0.2,0,0.3,0C346.2,232.9,346.7,233.4,346.8,234"/>
	<path id="Path_471_1_" class="st57" d="M351,249.8c0.2,0.7-0.3,1.5-1,1.6c-0.7,0.2-1.5-0.3-1.6-1s0.3-1.5,1-1.6c0.1,0,0.2,0,0.3,0
		C350.4,248.7,350.9,249.2,351,249.8"/>
	<path id="Path_472_1_" class="st57" d="M351.6,264c-0.2,0.7-0.9,1.2-1.6,1c-0.5-0.1-0.9-0.5-1-1c0.2-0.7,0.9-1.2,1.6-1
		C351.1,263.1,351.5,263.5,351.6,264"/>
	<path id="Path_473_1_" class="st57" d="M352.1,279.8c0,0.6-0.7,1-1.6,1s-1.6-0.5-1.6-1s0.7-1,1.6-1S352.1,279.2,352.1,279.8"/>
	<path id="Path_474_1_" class="st58" d="M326.1,182.3c0,0-17.1-5.5-15-21.8c0.3-2.1,1.8-13.1,16.8-16.8c6.3-1.6,11.6,3.7,20-0.5
		c0,0,1.6,10.5-5.8,15.2c-1.4,0.9-7.9,3.2-13.7,3.7S326.6,180.2,326.1,182.3"/>
	<path id="Path_475_1_" class="st59" d="M410.4,47.5c0,0,6.8-11,17.3-7.4c2.5,0.9,13.7,9.5,3.7,25.8c-0.9,1.4-15.2,16.8-15.8,20
		s-0.5,9.4,2.1,8.9s2.6-1.6,2.6-3.2s1.6-0.5,1.6,0.5s-1.6,4.2-4.2,4.2s-4.5-1-5.1-7.1s5.7-11.3,7.2-13.4s10.5-10.5,11.6-23.1
		c0.2-2.1-2.1-8.4-8.4-8.4c-2.1,0-9.5,3.2-11,17.9S410.5,47.5,410.4,47.5"/>
	<path id="Path_476_1_" class="st60" d="M342.1,76.9c0,0-17.9-6.7-22.6,7.4c-0.5,1.6-3.7,14.7,15.8,20.5c2,0.6,22.6,1.6,26.3,3.7
		c2.2,1.1,3.6,3.3,3.7,5.8c0,0.5-2.1,3.7-4.7,0.5c-0.8-0.9-0.5,3.7,2.1,3.2s5.3-2.6,3.9-7.9c-0.4-1.5-6-6.8-16.5-7.4
		c-2.1-0.1-20-1.6-24.2-10c-0.7-1.5-4.7-18.9,19.5-7.4S342.1,76.9,342.1,76.9"/>
	
		<linearGradient id="Path_477_2_" gradientUnits="userSpaceOnUse" x1="114.6584" y1="578.8084" x2="115.658" y2="578.8084" gradientTransform="matrix(12.08 0 0 -7.36 -1042.0699 4556.0298)">
		<stop  offset="0.26" style="stop-color:#FFC500"/>
		<stop  offset="1" style="stop-color:#FF3036"/>
	</linearGradient>
	<path id="Path_477_1_" class="st61" d="M351.6,299.7h-4.7c-2,0-3.7-1.7-3.7-3.7s1.6-3.7,3.7-3.7h4.7c2,0,3.7,1.7,3.7,3.7
		C355.2,298.1,353.6,299.7,351.6,299.7"/>
	<path id="Path_478_1_" class="st62" d="M432.5,131.6c0,0-29.4,0-53.6,20.5l3.1,16.3c0,0,20.2-3.9,32.1-8.4
		c6.8-2.6,25.2-12.6,26.8-14.7L432.5,131.6z"/>
	<path id="Path_479_1_" class="st4" d="M427.8,136.3c0,0,11.6,8.9,4.7,12.6s-26.8,14.7-50.8,17.5c-2.3,0.3-1.2-14.4-1.2-14.4
		S403.6,151.1,427.8,136.3"/>
	<path class="st54" d="M246.4,329.6L246.4,329.6L214,275.4c0,0-19.8,3.6-31.4,6.2h-0.3c-4.4,1-7.5,1.8-7.9,2.2
		c-1.6,1.6,8.9,67.8,8.9,67.8L144,380.1l0.3,0.2l0,0l8.7,8.2l41.4-20.9l5.8,6.7c0,0,30.2-17.5,39.4-24.2
		C252.8,340.7,246.4,329.6,246.4,329.6z M196.1,282.1c0.5-0.2,0.9-0.3,1.1-0.4h0.3C197.5,281.7,196.9,281.8,196.1,282.1z M202.9,358
		l-0.4-31.5v-0.1v-0.3v0.2l1.9-14v-2.4l0,0V306l0,0v3.8l22.6,26.6L202.9,358z"/>
	<g>
		<path class="st55" d="M174.4,283.9c-1.6,1.6,8.9,67.8,8.9,67.8L144,380.1l0.3,0.2c5.1-3.2,23.3-14.5,25-15.5
			c16.3-9.5,16.8-13.7,16.8-13.7H186c0,0-3.7-45.7-4.2-49.9c-2-16,15.6-19.6,15.6-19.6h-15C178,282.7,174.8,283.5,174.4,283.9z"/>
		<polygon class="st55" points="200.8,362.6 230.2,336.5 204.4,306 204.4,309.9 227,336.5 201,359.7 		"/>
	</g>
	<path class="st3" d="M201.2,192.8c-0.7,0.1-1.4,0-2-0.3c-2-1-2.6-3.7-2.6-6.3l0,0l0,0l0,0l0,0l0,0c0-1.9,0.1-3.9,0.5-5.8
		c0,0-11.3-0.5-11,1.6c1.5,12.3-6.4,16.5-8.8,16.8c1,0.6,2.1,1,3.2,1.3l0,0c7.8,1.9,21.8-0.7,24-2.8l0,0
		C205.9,195.8,203.1,193.8,201.2,192.8z"/>
	<path id="Path_490_1_" class="st51" d="M196.6,186.2c0-1.9,0.1-3.9,0.5-5.8c0,0-11.3-0.5-11,1.6c1.5,12.3-6.4,16.5-8.8,16.8
		c1,0.6,2.1,1,3.2,1.3C186.1,195.8,191.5,191.1,196.6,186.2"/>
	<path id="Path_492_1_" class="st3" d="M259.1,126.8c-0.5,0-1,3.7-1,3.7s0-6.3-0.5-6.8s-1.6,6.8-1.6,6.8s0-7.9-0.5-8.9
		s-1.6,8.9-1.6,8.9s-0.5-4.7-0.5-5.8s-2.1-1-1.6,0s0.5,8.9,0.5,8.9c-2.1-1.6-2.4,0.1-2.1,0.5c4.2,4.7,2.6,9.5,2.6,9.5L235,171.8
		c-3.7,11.3-0.8,12.2,8,8.3c1.6-1.8,2.7-3,2.9-3.3c1.1-1.6,11.6-30,13.1-35.2S259.6,126.8,259.1,126.8"/>
	<path id="Path_493_1_" class="st3" d="M137.8,186.3c-0.9-0.5-1.4-0.8-1.4-0.8c-3.2-2.6-23.7-31-23.7-32.1s5.2-9.2,4.7-9.5
		c-2.6-1.6-5.3,2.6-5.3,2.6c-0.3-3.9-1.3-11.8-2.4-12.9s-1.6,7.9-1.6,7.9s-1.6-8.9-2.1-8.9s-0.5,9.5-0.5,9.5s-2.1-6.3-3.2-7.9
		s1.6,12.1,0,8.4s-2.6-3.1-2.6-3.1c17.2,45,27,53.8,31,57.4C142.2,204.3,155.9,201.8,137.8,186.3"/>
	
		<linearGradient id="SVGID_2_" gradientUnits="userSpaceOnUse" x1="130.8" y1="247.1758" x2="242.9" y2="247.1758" gradientTransform="matrix(1 0 0 -1 0 475.89)">
		<stop  offset="0" style="stop-color:#00B1EE"/>
		<stop  offset="1" style="stop-color:#00FCD5"/>
	</linearGradient>
	<path class="st63" d="M235,171.8l-0.1,0.2c0,0-24.7,19.9-33.7,20.8c1.9,1.1,4.7,3,3.2,4.5c-2.2,2.2-16.2,4.7-24,2.8
		c-1.1-0.2-2.2-0.7-3.2-1.3H177c-14.3,0.9-33.9-9.5-39.3-12.6c0.4,6.5-1.8,9-4,10l0,0c-0.9,0.4-1.9,0.6-2.9,0.5
		c0.4,0.4,0.7,0.7,1,0.9c3.1,3.2,34.9,18.8,35.7,19.5c7.4,6.3,12.2,40.3,7.9,51c-4.2,10.5-4.7,16.8-4.7,16.8
		c3.2,3.7,44.1-7.9,44.1-7.9s-0.1-0.2-0.2-0.3l0,0c-6.6-10.6-3.5-35-0.4-47s-0.2-21,1-22.1c10.5-9.7,22.2-21.8,27.6-27.7h0.1
		C242.3,175.9,239.1,172.6,235,171.8z"/>
	<path id="Path_495_1_" class="st64" d="M179.7,275c0,0-1.1-26.8-1.1-29.4c0-25.2-11.1-31.9-14.2-33.1c-11-3.9-21.3-9.4-30.7-16.2
		c-0.9,0.4-1.9,0.6-2.9,0.6c0.4,0.4,0.7,0.7,1,0.9c3.1,3.2,34.9,18.8,35.7,19.4c7.4,6.3,12.2,40.3,7.9,51
		c-4.2,10.5-4.7,16.8-4.7,16.8c3.2,3.7,44.1-7.9,44.1-7.9s-0.1-0.2-0.2-0.3l-25.6,2.9C179.7,280.8,179.7,276.1,179.7,275"/>
	<path id="Path_496_1_" class="st58" d="M201.8,156.3c5.3-4.7,5.3-7.4,3.2-6.3s-5.3,0-5.3,0s2.1-4.7-10.5-4.7s-16.5,14.8-16.8,17.3
		c-2.1,18.9-12.1,28.4-12.1,28.4c11.4,0,18.1-5.2,21.9-11.4c5.6-8.9,5.4-19.6,5.4-19.6h8.4c1.6,0,4.7-2.6,4.7-2.6s2.6,12.1,1.6,17.3
		c-0.7,3.5-4.3,7.3-6.5,9.4c7-3.3,9.9-18,9.9-18.3l0,0C204.4,159.4,201.8,156.3,201.8,156.3"/>
	<g>
		
			<linearGradient id="SVGID_3_" gradientUnits="userSpaceOnUse" x1="423.5178" y1="341.2337" x2="423.6015" y2="341.1728" gradientTransform="matrix(1 0 0 -1 0 475.89)">
			<stop  offset="0.26" style="stop-color:#FFC500"/>
			<stop  offset="1" style="stop-color:#FF3036"/>
		</linearGradient>
		<path class="st65" d="M423.6,134.7C423.6,134.7,423.5,134.7,423.6,134.7L423.6,134.7L423.6,134.7z"/>
		
			<linearGradient id="SVGID_4_" gradientUnits="userSpaceOnUse" x1="294.495" y1="456.1183" x2="487.1658" y2="316.0746" gradientTransform="matrix(1 0 0 -1 0 475.89)">
			<stop  offset="0.26" style="stop-color:#FFC500"/>
			<stop  offset="1" style="stop-color:#FF3036"/>
		</linearGradient>
		<path class="st66" d="M421.2,130.9L421.2,130.9l-0.3-0.4c-4.2,0.4-8.4-0.9-11.6-3.7c-9.5-7.4-5.1-17.3-4.2-18.9
			c19.4-35.2,4.2-65.7,4.2-65.7l-12.8,5c4.2,5.6,11.5,18,11.8,37.2c-0.3-19.2-7.6-31.6-11.8-37.2l-45.9,18.1l-16,6.3
			c13.1,27.9,33.6,41,41,43.1s12.6,3.1,17.3,10c-3.2-10.5-15.1-14.3-21-17.9l0,0c-7.4-4.5-12.3-11.1-15.5-17.7
			c3.2,6.6,8.1,13.2,15.5,17.7c5.9,3.5,17.9,7.3,21,17.9c4.7,6.8-3.7,17.3-3.7,17.3l-1.9,0.7c0,0,0,0-0.1,0l-1.1,0.4l0.6,1.8l1.5,4
			c14-1,34.6-13.8,35.2-14.2L421.2,130.9L421.2,130.9z M402,115.7c-0.1,4.6,1.9,9.3,9,14.2c0,0,1.5,1.5,1.3,2.7
			c0.1-1.2-1.3-2.6-1.3-2.6C403.9,125.1,401.8,120.3,402,115.7z"/>
	</g>
	
		<linearGradient id="Path_497_2_" gradientUnits="userSpaceOnUse" x1="122.3952" y1="648.5491" x2="122.2052" y2="647.7991" gradientTransform="matrix(37.31 0 0 -106.67 -4152.4502 69216.2422)">
		<stop  offset="0.26" style="stop-color:#FFC500"/>
		<stop  offset="1" style="stop-color:#FF3036"/>
	</linearGradient>
	<path id="Path_497_1_" class="st67" d="M423.6,134.7l-2.6-4.2c-4.2,0.4-8.4-0.9-11.6-3.7c-9.5-7.4-5.1-17.3-4.2-18.9
		c19.4-35.2,4.2-65.7,4.2-65.7l-12.8,5c5,6.6,14.3,22.8,11.2,48.6c-1.4,11.2-14.2,22.1,3.2,34.2c0,0,2.6,2.6,0.5,3.7
		s-21.9,10.3-24.1,9.1l-1.1,0.4l0.6,1.8c4.7-1.4,22.7-7.1,34.3-13.9c-11.6,6.9-29.6,12.5-34.3,13.9l1.5,4
		C402.5,147.9,423.6,134.7,423.6,134.7"/>
	
		<linearGradient id="Path_498_2_" gradientUnits="userSpaceOnUse" x1="123.2557" y1="643.9736" x2="124.8656" y2="642.2736" gradientTransform="matrix(58.33 0 0 -59.37 -6831.3901 38321.3594)">
		<stop  offset="0.26" style="stop-color:#FFC500"/>
		<stop  offset="1" style="stop-color:#FF3036"/>
	</linearGradient>
	<path id="Path_498_1_" class="st68" d="M372.1,106.9c-19.8-11.9-21.5-39.4-21.5-39.4c0-0.7,0-1.4,0.2-2.1l-16,6.3
		c13.1,27.8,33.6,41,41,43.1s12.6,3.2,17.3,10C389.9,114.2,378,110.4,372.1,106.9"/>
	<line id="Line_11_1_" class="st69" x1="455.1" y1="64.8" x2="492.4" y2="64.8"/>
	<line id="Line_12_1_" class="st69" x1="451.4" y1="76.9" x2="495" y2="99.5"/>
	<line id="Line_13_1_" class="st69" x1="444.1" y1="89.5" x2="461.9" y2="103.7"/>
	<line id="Line_14_1_" class="st69" x1="315.3" y1="62.2" x2="300.1" y2="50.6"/>
	<line id="Line_15_1_" class="st69" x1="452.8" y1="52.8" x2="469.4" y2="43.3"/>
	<line id="Line_16_1_" class="st69" x1="308.5" y1="73.8" x2="272.2" y2="54.3"/>
	<line id="Line_17_1_" class="st69" x1="306.4" y1="83.7" x2="274.3" y2="83.7"/>
	<line id="Line_18_1_" class="st69" x1="309.5" y1="95.3" x2="274.3" y2="113.7"/>
	<line id="Line_19_1_" class="st69" x1="314.3" y1="104.2" x2="302.2" y2="120.5"/>
	<path id="Path_500_1_" class="st4" d="M135.3,387.7c-2.6-1.1-5.3-1.7-8.1-1.8c-4.2,0-4.2,24.7-4.2,24.7s4.7,3.1,11-16.3
		C134.6,392.2,135.1,390,135.3,387.7"/>
	<path id="Path_501_1_" class="st70" d="M334.8,71.1c0,0,50.4-28.9,74.1-28.9C417.3,42.2,342.1,76.4,334.8,71.1"/>
	
		<linearGradient id="Path_502_2_" gradientUnits="userSpaceOnUse" x1="120.4678" y1="644.8366" x2="124.3278" y2="642.0566" gradientTransform="matrix(29.56 0 0 -60.27 -3283.5298 39080.7812)">
		<stop  offset="0.26" style="stop-color:#501699"/>
		<stop  offset="1" style="stop-color:#EB55FF"/>
	</linearGradient>
	<path id="Path_502_1_" class="st71" d="M286.9,252.4c0,1.6-3.1,1.6,4.2,8.9c7.4,7.4,22.1,23.6,21.5,25.2c-0.4,1.3,1.3,1.5-0.6,5.6
		c2.4-2.1,4.8-5.2,3.2-7.7c-2.6-4.2-26.8-30-26.8-30l16.8-21l0.5-1.6C305.9,231.9,286.9,250.8,286.9,252.4"/>
	<path id="Path_503_1_" class="st3" d="M492.4,96.4c0,0-2.6,5.8-3.1,7.3s-4.2,3.2-0.5,8.9l0.8,3.9l3.4,0.8l5.5-0.8
		c0,0,2.4-12.3,1.3-12.9S494,95.3,492.4,96.4"/>
	<path id="Path_504_1_" class="st72" d="M498.7,114.2v8.4l-11.6,1c0,0,1.6-11.6,1.6-13.7S498.2,111.6,498.7,114.2"/>
	<path id="Path_505_1_" class="st3" d="M586.6,105.5c0,0,4.1,4.8,5.1,6.2s4.9,1.9,3,8.4l0.3,4l-3.1,1.7l-5.5,0.8
		c0,0-5.7-11.2-4.8-12S584.8,104.9,586.6,105.5"/>
	<path id="Path_506_1_" class="st72" d="M585.5,124.4l2.3,8.1l11.4-2.2c0,0-4.7-10.7-5.3-12.7S585.3,121.8,585.5,124.4"/>
	<path id="Path_507_1_" class="st51" d="M533.6,164.9l3.2,11l12.1,2.1l2.1-4.7c-0.3-3-0.1-6,0.5-8.9
		C552.5,160.2,533.6,164.9,533.6,164.9"/>
	<path id="Path_508_1_" class="st3" d="M574.3,427.4v5.2c0,0-1.6,2.6-4.2,2.1s-4.4,1.3-4.4,0.3s1.3-11.3,1.3-11.3L574.3,427.4z"/>
	<path id="Path_509_1_" class="st3" d="M513.4,425.3c0,0-1,6.8-3.2,7.4c-2.1,0.5-7.6,3.4-7.6,3.4l2.8-17.1L513.4,425.3z"/>
	<path id="Path_510_1_" class="st73" d="M511,430.3c0,0,4.9-2,5.5,0s3.3,9.4,1.8,9.9l-36.7,10.9c0,0-2.2-2.1,0-3.8
		s21.1-14.4,21.1-14.4h2.5c1.8,0,3.5-0.6,4.9-1.8L511,430.3z"/>
	<path id="Path_511_1_" class="st73" d="M575.5,434.4c0,0,15.5,12.9,17.2,15.4s-2.2,3.6-2.2,3.6l-0.5-0.2l-26.7-12.3
		c0,0,2.3-10,6.7-9.6S575.5,434.4,575.5,434.4"/>
	<polygon class="st54" points="574.9,428.5 561.2,269.2 508.1,267.1 503.4,346 503.4,425.8 514.9,426.9 524.4,350.1 533.8,308.1 
		527,280.3 533.9,308.2 547,356 562.8,428.4 566.8,428.4 566.8,428.5 	"/>
	<path id="Path_512_1_" class="st55" d="M552.8,355.4l14,73h-4L547,356l-13.1-47.8l0,0l-6.9-27.9L552.8,355.4z"/>
	<path id="Path_514_1_" class="st57" d="M533.4,166.3l-3.2,6.3l-5.8,43.1l-7.4,54.6l24.7-0.5l3.7-67.8l-1-15.2l12.1-11.6l-1-5.8
		l-14.2,6.8L533.4,166.3z"/>
	<path id="Path_515_1_" class="st74" d="M540.2,177.3l-2.1,4.2l-7.3-10.1l7.3,13.2L540.2,177.3z"/>
	<path id="Path_516_1_" class="st74" d="M541.3,178.9l1.7,6.8l12-11l-11,8.4L541.3,178.9z"/>
	<path id="Path_517_1_" class="st3" d="M531.8,133.7c0,0-3.7,0-3.2,2.6s2.1,2.6,2.1,2.6s-6.3,23.6,5.8,29.4
		c2.6,1.2,13.9,1.8,18.4-4.7c2.7-4,4.7-11,4.7-11s5.3-2.1,4.7-4.2s-0.9-2.8-2.3-2.2s-2.5-14.6-2.5-14.6l-20.5-3.7L531.8,133.7z"/>
	<path id="Path_518_1_" class="st57" d="M535.5,154.7c0,0,8.4,3.2,10,2.6c0,0-3.2,5.3-5.8,4.2S535,158.9,535.5,154.7"/>
	<rect id="Rectangle_89_1_" x="519.2" y="265.6" class="st75" width="23.7" height="6.8"/>
	<rect id="Rectangle_90_1_" x="523.9" y="265.6" class="st76" width="11" height="6.8"/>
	<path id="Path_519_1_" class="st58" d="M560.2,151c0,0,2.6-6.3,3.2-8.4s5.3-12.1-0.5-16.3s-12.6-4.7-13.7-7.4s0,2.1,0,2.1
		s-4.2-3.2-5.3-4.7s-5.2-0.5-4.7,3.7c0,0-7.3,4.2-5.8,9.5c0,0-4.2,4.7-2.6,9.5c0,0,2.6-6.3,4.7-6.8s2.1,2.6,4.7,2.6
		s13.1,0.5,14.7,1.6s3.2,0,3.2,1s-0.5,5.3,1,6.3s1.6,4.7,1,7.4"/>
	<g>
		
			<linearGradient id="SVGID_5_" gradientUnits="userSpaceOnUse" x1="508.1827" y1="291.511" x2="470.8173" y2="209.9901" gradientTransform="matrix(1 0 0 -1 0 475.89)">
			<stop  offset="0" style="stop-color:#44B3FF"/>
			<stop  offset="1" style="stop-color:#537CFF"/>
		</linearGradient>
		<path class="st77" d="M533.6,176l-2.9-4.8c-1.4,0.5-2.7,0.8-4.2,1.1c-0.4,1.6-0.9,4-0.9,6.4c0-2.4,0.5-4.8,0.9-6.4
			c-0.9,0.1-1.8,0.1-2.6-0.2c-3.2-1.1-20.5-9.5-29.4-20.5c-1.2-1.5,5.8-27.8,5.8-27.8s-6.3-7.9-14.7-3.7c0,0-8.9,34.2-8.9,35.7
			c0,1.6,1.6,8.4,32.6,37.3c1.4,1.3-1.6,31.5-1.6,44.7s-6,44.9-0.3,42.8s13.4-10.2,13.4-10.2s0.5-8.5,1.5-20.5l0,0
			c1.9-23.5,5.8-60.3,11.7-72.5C534.7,175.6,533.6,176,533.6,176z M521.8,197.3c-0.3,0.6-0.7,2.4-1.1,5.5
			C521.1,199.7,521.5,197.8,521.8,197.3L521.8,197.3c0.9-1.8,6.3-7.3,6-11.5C528.1,190,522.7,195.5,521.8,197.3z"/>
		
			<linearGradient id="SVGID_6_" gradientUnits="userSpaceOnUse" x1="576.1849" y1="295.4611" x2="534.0884" y2="203.6185" gradientTransform="matrix(1 0 0 -1 0 475.89)">
			<stop  offset="0" style="stop-color:#44B3FF"/>
			<stop  offset="1" style="stop-color:#537CFF"/>
		</linearGradient>
		<path class="st78" d="M613.3,156.8L613.3,156.8c0,0-11.6-27.8-13.1-30.5c-1.6-2.7-4.2-2.6-8.4-1.6s-6.8,5.8-6.8,5.8
			s10.7,24.8,10,25.8c-10,12.6-29.4,20.5-29.4,20.5c-1-0.6-2-1.1-3.1-1.4c-0.1,0.1-0.1,0.2-0.2,0.2c0.1-0.1,0.1-0.2,0.2-0.2
			c-3.1-1.1-6.1-2-6.1-2s-2.1,2.1-10.5,8.9c-1.4,1.2-2.2,1.2-2.4,1.8c-4.7,17.1-5.9,49.9-5.9,69.8c0.1-0.8,0.3-1.6,0.5-2.4
			c-0.1,0.8-0.3,1.6-0.4,2.4c0,8.9,0.3,15.2,0.6,16.4c1,3.7,16.7,9.4,20.5,10c6.8,1.1,2.9-12.6,2.6-14.7
			c-3.1-26.3,7.9-60.4,7.9-60.4l38.8-36.3C615.4,162,613.3,156.8,613.3,156.8z"/>
	</g>
	<path id="Path_520_1_" class="st79" d="M546.5,189.4c5.9-3.9,11.2-8.6,15.8-14c-3.1-1.1-6.1-2-6.1-2s-2.1,2.1-10.5,8.9
		c-1.4,1.1-2.2,1.2-2.4,1.8c-4.7,17.1-5.9,49.9-5.9,69.8c3.1-17.5,8.7-48.4,9-50.4C547,201,544.5,190.7,546.5,189.4"/>
	<path id="Path_523_1_" class="st79" d="M533.6,176l-2.9-4.8c-1.4,0.5-2.7,0.8-4.2,1.1c-0.7,2.8-1.8,8.3,0.5,11.4
		c3.2,4.2-4.2,11.6-5.3,13.7s-3.9,20,0.4,52.6c1.9-23.5,5.8-60.3,11.7-72.5C534.7,175.6,533.6,176,533.6,176"/>
	<path id="Path_524_1_" class="st3" d="M202.3,174.7c1.1-5.2-1.6-17.3-1.6-17.3s-3.2,2.7-4.7,2.7h-8.4c0,0,0.2,10.8-5.4,19.6
		c2.5,2.8,5.9,4.6,9.6,5.1c1.4,0.2,2.8,0,4-0.6C199.4,182.3,201.9,178.7,202.3,174.7"/>
	<path id="Path_525_1_" class="st57" d="M189.2,173.6l8.4-1.1c0,0,1,4.7-3.1,5.8C193.9,178.5,190.8,178.3,189.2,173.6"/>
	<path id="Rectangle_100_1_" class="st80" d="M635.6,396.5L635.6,396.5c5.4,0,9.8,4.4,9.8,9.8l0,0c0,5.4-4.4,9.8-9.8,9.8l0,0
		c-5.4,0-9.8-4.4-9.8-9.8l0,0C625.8,400.9,630.2,396.5,635.6,396.5z"/>
	<path id="Rectangle_108_1_" class="st80" d="M142.8,305.8L142.8,305.8c5.4,0,9.8,4.4,9.8,9.8l0,0c0,5.4-4.4,9.8-9.8,9.8l0,0
		c-5.4,0-9.8-4.4-9.8-9.8l0,0C133,310.1,137.4,305.8,142.8,305.8z"/>
	<path id="Path_990_1_" class="st81" d="M668.7,176.9v19.6l-17.2-9.9L668.7,176.9z"/>
	<path id="Path_1318_1_" class="st81" d="M221.2,108.5v19.6l-17.2-9.9L221.2,108.5z"/>
	<g id="Group_189_1_" class="st82">
		<path id="Path_974_1_" class="st83" d="M451.5,284.5c2.8,0,5,2.2,5,5s-2.2,5-5,5s-5-2.2-5-5l0,0
			C446.5,286.7,448.8,284.5,451.5,284.5z"/>
		<path id="Path_975_1_" class="st83" d="M451.5,257.8c2.8,0,5,2.2,5,5s-2.2,5-5,5s-5-2.2-5-5l0,0
			C446.5,260,448.8,257.8,451.5,257.8z"/>
		<path id="Path_976_1_" class="st83" d="M451.5,230.8c2.8,0,5,2.2,5,5s-2.2,5-5,5s-5-2.2-5-5l0,0
			C446.5,233.1,448.8,230.8,451.5,230.8z"/>
		<circle id="Ellipse_67_1_" class="st83" cx="424.6" cy="262.8" r="5"/>
		<path id="Path_977_1_" class="st83" d="M483.5,262.8c0,2.8-2.2,5-5,5s-5-2.2-5-5s2.2-5,5-5l0,0C481.3,257.8,483.5,260,483.5,262.8
			z"/>
		<g id="Group_188_1_">
			
				<linearGradient id="Path_978_2_" gradientUnits="userSpaceOnUse" x1="265.0746" y1="598.8472" x2="266.0746" y2="598.8472" gradientTransform="matrix(10.08 0 0 -10.08 -692.14 6322.2798)">
				<stop  offset="0" style="stop-color:#FCF63B"/>
				<stop  offset="0.98" style="stop-color:#E48B21"/>
			</linearGradient>
			<path id="Path_978_1_" class="st84" d="M442.7,285.9c0,2.8,2.2,5,5,5s5-2.2,5-5s-2.2-5-5-5l0,0
				C444.9,280.9,442.7,283.1,442.7,285.9z"/>
			
				<linearGradient id="Ellipse_68_2_" gradientUnits="userSpaceOnUse" x1="225.8109" y1="663.9689" x2="226.8115" y2="663.9689" gradientTransform="matrix(0.3 -10.07 -10.07 -0.3 7112.6401 1174.24)">
				<stop  offset="0" style="stop-color:#FCF63B"/>
				<stop  offset="0.98" style="stop-color:#E48B21"/>
			</linearGradient>
			<circle id="Ellipse_68_1_" class="st85" cx="447.8" cy="259.2" r="5"/>
			
				<linearGradient id="Path_979_2_" gradientUnits="userSpaceOnUse" x1="270.4146" y1="598.8512" x2="271.4247" y2="598.8512" gradientTransform="matrix(10.08 0 0 -10.08 -692.14 6268.4199)">
				<stop  offset="0" style="stop-color:#FCF63B"/>
				<stop  offset="0.98" style="stop-color:#E48B21"/>
			</linearGradient>
			<path id="Path_979_1_" class="st86" d="M442.7,232c0,2.8,2.2,5,5,5s5-2.2,5-5s-2.2-5-5-5l0,0C444.9,227,442.7,229.3,442.7,232z"
				/>
			
				<linearGradient id="Ellipse_69_2_" gradientUnits="userSpaceOnUse" x1="270.4247" y1="598.8433" x2="271.4247" y2="598.8433" gradientTransform="matrix(10.08 0 0 -10.08 -719.07 6295.3398)">
				<stop  offset="0" style="stop-color:#FCF63B"/>
				<stop  offset="0.98" style="stop-color:#E48B21"/>
			</linearGradient>
			<circle id="Ellipse_69_1_" class="st87" cx="420.8" cy="259" r="5"/>
			
				<linearGradient id="Path_980_2_" gradientUnits="userSpaceOnUse" x1="265.0746" y1="598.8442" x2="266.0746" y2="598.8442" gradientTransform="matrix(10.08 0 0 -10.08 -665.21 6295.3501)">
				<stop  offset="0" style="stop-color:#FCF63B"/>
				<stop  offset="0.98" style="stop-color:#E48B21"/>
			</linearGradient>
			<path id="Path_980_1_" class="st88" d="M469.6,259c0,2.8,2.2,5,5,5s5-2.2,5-5s-2.2-5-5-5l0,0C471.9,254,469.6,256.2,469.6,259z"
				/>
		</g>
	</g>
	
		<linearGradient id="Path_867_2_" gradientUnits="userSpaceOnUse" x1="136.5324" y1="667.9141" x2="129.6823" y2="661.3441" gradientTransform="matrix(-54.56 14.63 14.63 54.56 -1929.42 -37680.9766)">
		<stop  offset="0" style="stop-color:#92FE9D"/>
		<stop  offset="0.83" style="stop-color:#92FE9D"/>
		<stop  offset="1" style="stop-color:#00C9FF"/>
	</linearGradient>
	<path id="Path_867_1_" class="st89" d="M634.3,360.7c-5.7-3.3-7.7-10.6-4.5-16.4v-0.1l22.9-39.6c3.3-5.7,10.6-7.7,16.4-4.5h0.1l0,0
		c5.7,3.3,7.7,10.6,4.5,16.4l-0.1,0.1l-22.9,39.6C647.4,362,640.1,364,634.3,360.7L634.3,360.7z"/>
	
		<linearGradient id="Path_1316_2_" gradientUnits="userSpaceOnUse" x1="119.6499" y1="644.3367" x2="121.1499" y2="645.6866" gradientTransform="matrix(53.07 -19.32 -19.32 -53.07 6532.5601 36835.7617)">
		<stop  offset="0" style="stop-color:#C444FB"/>
		<stop  offset="0.51" style="stop-color:#5B56D7"/>
		<stop  offset="1" style="stop-color:#5B56D7"/>
	</linearGradient>
	<path id="Path_1316_1_" class="st90" d="M467.2,262.5c6,2.8,8.6,9.9,5.8,15.9v0.1L453.7,320c-2.8,6-9.9,8.6-15.9,5.9h-0.1l0,0
		c-6-2.8-8.6-9.9-5.9-15.9v-0.1l19.3-41.5c2.8-6,9.9-8.6,15.9-5.9H467.2z"/>
	
		<linearGradient id="Path_1317_2_" gradientUnits="userSpaceOnUse" x1="127.4062" y1="662.4201" x2="128.3862" y2="663.3301" gradientTransform="matrix(-56.48 0 0 56.48 7241.4502 -37303.4102)">
		<stop  offset="0" style="stop-color:#907CFF"/>
		<stop  offset="1" style="stop-color:#6EBCFF"/>
	</linearGradient>
	<path id="Path_1317_1_" class="st91" d="M3.6,150.8c-4.7-4.7-4.8-12.3-0.1-17l0,0l0.1-0.1L36,101.3c4.7-4.7,12.3-4.8,17-0.1l0,0
		l0.1,0.1l0,0c4.7,4.7,4.8,12.3,0.1,17l0,0l-0.1,0.1l-32.4,32.4C15.9,155.5,8.3,155.5,3.6,150.8L3.6,150.8z"/>
</g>
</svg>
